<?xml version="1.0" encoding="UTF-8"?>
<!DOCTYPE svg PUBLIC "-//W3C//DTD SVG 1.1//EN" "http://www.w3.org/Graphics/SVG/1.1/DTD/svg11.dtd">
<svg xmlns="http://www.w3.org/2000/svg" version="1.1" width="64px" height="64px" style="shape-rendering:geometricPrecision; text-rendering:geometricPrecision; image-rendering:optimizeQuality; fill-rule:evenodd; clip-rule:evenodd" xmlns:xlink="http://www.w3.org/1999/xlink">
<g><path style="opacity:0.521" fill="#fefffe" d="M 63.5,22.5 C 63.5,23.1667 63.5,23.8333 63.5,24.5C 62.5,24.5 61.5,24.5 60.5,24.5C 61.3101,29.7406 61.3101,34.9073 60.5,40C 61.3734,41.045 62.3734,41.8783 63.5,42.5C 63.5,44.1667 63.5,45.8333 63.5,47.5C 60.8578,50.1918 59.8578,53.5251 60.5,57.5C 61.5,57.5 62.5,57.5 63.5,57.5C 63.5,58.5 63.5,59.5 63.5,60.5C 42.1667,60.5 20.8333,60.5 -0.5,60.5C -0.5,59.5 -0.5,58.5 -0.5,57.5C 0.5,57.5 1.5,57.5 2.5,57.5C 3.14225,53.5251 2.14225,50.1918 -0.5,47.5C -0.5,45.8333 -0.5,44.1667 -0.5,42.5C 0.626561,41.8783 1.62656,41.045 2.5,40C 1.68992,34.9073 1.68992,29.7406 2.5,24.5C 1.5,24.5 0.5,24.5 -0.5,24.5C -0.5,23.8333 -0.5,23.1667 -0.5,22.5C 3.47934,17.2347 7.47934,11.9014 11.5,6.5C 13.1667,7.5 14.5,8.83333 15.5,10.5C 18.3174,8.18325 20.9841,5.68325 23.5,3C 28.8333,2.33333 34.1667,2.33333 39.5,3C 42.0159,5.68325 44.6826,8.18325 47.5,10.5C 48.5,8.83333 49.8333,7.5 51.5,6.5C 55.5207,11.9014 59.5207,17.2347 63.5,22.5 Z M 23.5,5.5 C 28.8437,5.33398 34.1771,5.50065 39.5,6C 41.3333,7.83333 43.1667,9.66667 45,11.5C 44.416,15.4966 42.5827,18.9966 39.5,22C 29.1244,25.3259 21.791,22.3259 17.5,13C 19.3198,10.3478 21.3198,7.84785 23.5,5.5 Z M 25.5,12.5 C 27.4646,12.9483 27.7979,13.9483 26.5,15.5C 25.6143,14.675 25.281,13.675 25.5,12.5 Z M 35.5,12.5 C 37.4646,12.9483 37.7979,13.9483 36.5,15.5C 35.6143,14.675 35.281,13.675 35.5,12.5 Z M 13.5,17.5 C 9.02961,17.9699 8.52961,16.9699 12,14.5C 13.0386,15.2438 13.5386,16.2438 13.5,17.5 Z M 49.5,17.5 C 50.203,13.6632 51.5364,13.4966 53.5,17C 52.2068,17.49 50.8734,17.6567 49.5,17.5 Z M 7.5,19.5 C 8.46138,21.2646 8.79472,23.2646 8.5,25.5C 10.8333,25.5 13.1667,25.5 15.5,25.5C 15.3398,23.8008 15.5065,22.1341 16,20.5C 18.4766,23.7238 19.1432,27.3905 18,31.5C 15.05,26.6623 10.8834,25.329 5.5,27.5C 5.16667,26.8333 4.83333,26.1667 4.5,25.5C 5.48925,23.5061 6.48925,21.5061 7.5,19.5 Z M 11.5,19.5 C 14.3465,21.7975 14.0132,23.1309 10.5,23.5C 10.4326,22.0413 10.7659,20.7079 11.5,19.5 Z M 50.5,19.5 C 52.1042,20.287 52.7709,21.6203 52.5,23.5C 51.325,23.719 50.325,23.3857 49.5,22.5C 50.1272,21.5832 50.4606,20.5832 50.5,19.5 Z M 54.5,19.5 C 57.5441,21.5007 58.5441,24.1674 57.5,27.5C 52.1166,25.329 47.95,26.6623 45,31.5C 43.8568,27.3905 44.5234,23.7238 47,20.5C 47.4935,22.1341 47.6602,23.8008 47.5,25.5C 49.8333,25.5 52.1667,25.5 54.5,25.5C 54.5,23.5 54.5,21.5 54.5,19.5 Z M 20.5,26.5 C 27.8333,26.5 35.1667,26.5 42.5,26.5C 42.5,30.5 42.5,34.5 42.5,38.5C 35.1667,38.5 27.8333,38.5 20.5,38.5C 20.5,34.5 20.5,30.5 20.5,26.5 Z M 16.5,43.5 C 17.5147,49.2852 15.348,50.6185 10,47.5C 8.66667,48.1667 7.33333,48.8333 6,49.5C 4.69895,49.3613 3.86562,48.6946 3.5,47.5C 1.29058,44.7967 1.95725,42.4634 5.5,40.5C 3.25773,37.5153 3.09106,34.5153 5,31.5C 5.70956,32.9733 6.87623,33.6399 8.5,33.5C 8.63993,31.8762 7.97326,30.7096 6.5,30C 9.42255,27.9683 12.0892,28.3016 14.5,31C 13.6919,31.3076 13.0253,31.8076 12.5,32.5C 13.8881,33.4555 15.2214,34.4555 16.5,35.5C 15.7396,37.4366 14.7396,39.2699 13.5,41C 14.9423,41.3768 15.9423,42.2101 16.5,43.5 Z M 59.5,47.5 C 59.1344,48.6946 58.301,49.3613 57,49.5C 55.6667,48.8333 54.3333,48.1667 53,47.5C 47.652,50.6185 45.4853,49.2852 46.5,43.5C 47.0577,42.2101 48.0577,41.3768 49.5,41C 48.2604,39.2699 47.2604,37.4366 46.5,35.5C 47.7786,34.4555 49.1119,33.4555 50.5,32.5C 49.9747,31.8076 49.3081,31.3076 48.5,31C 50.9108,28.3016 53.5774,27.9683 56.5,30C 55.0267,30.7096 54.3601,31.8762 54.5,33.5C 56.1238,33.6399 57.2904,32.9733 58,31.5C 59.9089,34.5153 59.7423,37.5153 57.5,40.5C 61.0427,42.4634 61.7094,44.7967 59.5,47.5 Z M 30.5,29.5 C 31.4959,29.4142 32.3292,29.7476 33,30.5C 33.4935,32.1341 33.6602,33.8008 33.5,35.5C 32.1667,35.5 30.8333,35.5 29.5,35.5C 29.3253,33.3792 29.6586,31.3792 30.5,29.5 Z M 19.5,43.5 C 19.56,42.9569 19.8933,42.6236 20.5,42.5C 21.6474,44.7649 21.8141,47.0982 21,49.5C 20.8091,47.2922 20.3091,45.2922 19.5,43.5 Z M 26.5,42.5 C 29.8333,42.5 33.1667,42.5 36.5,42.5C 36.6621,44.5273 36.4955,46.5273 36,48.5C 33,43.1667 30,43.1667 27,48.5C 26.5045,46.5273 26.3379,44.5273 26.5,42.5 Z M 41.5,42.5 C 42.2389,42.369 42.9056,42.5357 43.5,43C 42.7362,45.0693 42.2362,47.236 42,49.5C 41.5034,47.1902 41.3367,44.8568 41.5,42.5 Z M 29.5,47.5 C 30.8333,47.5 32.1667,47.5 33.5,47.5C 33.8495,50.0448 33.0162,52.0448 31,53.5C 29.6814,51.7505 29.1814,49.7505 29.5,47.5 Z M 4.5,51.5 C 5.87344,51.3433 7.20677,51.51 8.5,52C 6.95118,53.214 5.78451,54.714 5,56.5C 4.50649,54.8659 4.33982,53.1992 4.5,51.5 Z M 54.5,52.5 C 55.5676,51.5655 56.901,51.2322 58.5,51.5C 58.6602,53.1992 58.4935,54.8659 58,56.5C 57.34,54.6763 56.1733,53.343 54.5,52.5 Z M 17.5,55.5 C 18.4493,52.0767 20.116,51.7434 22.5,54.5C 23.5,51.8333 24.5,51.8333 25.5,54.5C 25.0381,56.2906 23.8715,57.2906 22,57.5C 20.3933,56.9265 18.8933,56.2598 17.5,55.5 Z M 45.5,55.5 C 44.1067,56.2598 42.6067,56.9265 41,57.5C 37.7443,56.6742 37.0776,55.0076 39,52.5C 40.0859,54.847 41.4192,54.847 43,52.5C 44.7491,52.7483 45.5824,53.7483 45.5,55.5 Z M 8.5,55.5 C 10.1764,54.2897 11.5097,54.7897 12.5,57C 11.1351,56.8567 9.8018,56.3567 8.5,55.5 Z M 27.5,54.5 C 29.6456,54.6964 29.8122,55.6964 28,57.5C 27.5172,56.552 27.3505,55.552 27.5,54.5 Z M 33.5,54.5 C 35.2252,54.8425 35.7252,55.8425 35,57.5C 33.9614,56.7562 33.4614,55.7562 33.5,54.5 Z M 54.5,55.5 C 53.1982,56.3567 51.8649,56.8567 50.5,57C 51.4903,54.7897 52.8236,54.2897 54.5,55.5 Z M 17.5,55.5 C 17.0517,57.4646 16.0517,57.7979 14.5,56.5C 15.3937,56.4827 16.3937,56.1494 17.5,55.5 Z M 45.5,55.5 C 46.6063,56.1494 47.6063,56.4827 48.5,56.5C 46.9483,57.7979 45.9483,57.4646 45.5,55.5 Z"/></g>
<g><path style="opacity:0.514" fill="#fefffe" d="M 24.5,9.5 C 25.9305,9.42082 27.2638,9.75415 28.5,10.5C 29.4742,12.7427 29.8076,15.076 29.5,17.5C 27.1667,17.5 24.8333,17.5 22.5,17.5C 22.1072,14.4867 22.7739,11.8201 24.5,9.5 Z M 25.5,12.5 C 25.281,13.675 25.6143,14.675 26.5,15.5C 27.7979,13.9483 27.4646,12.9483 25.5,12.5 Z"/></g>
<g><path style="opacity:0.514" fill="#fefffe" d="M 35.5,9.5 C 39.9939,10.1587 41.6605,12.8254 40.5,17.5C 38.1667,17.5 35.8333,17.5 33.5,17.5C 33.1315,14.4669 33.7982,11.8002 35.5,9.5 Z M 35.5,12.5 C 35.281,13.675 35.6143,14.675 36.5,15.5C 37.7979,13.9483 37.4646,12.9483 35.5,12.5 Z"/></g>
<g><path style="opacity:0.607" fill="#fefffe" d="M 21.5,27.5 C 23.1667,27.5 24.8333,27.5 26.5,27.5C 26.5,30.8333 26.5,34.1667 26.5,37.5C 24.8333,37.5 23.1667,37.5 21.5,37.5C 21.5,34.1667 21.5,30.8333 21.5,27.5 Z"/></g>
<g><path style="opacity:0.558" fill="#fefffe" d="M 28.5,27.5 C 30.7925,27.2436 32.9592,27.5769 35,28.5C 35.498,31.4816 35.6646,34.4816 35.5,37.5C 32.8333,37.5 30.1667,37.5 27.5,37.5C 27.2529,34.0613 27.5863,30.728 28.5,27.5 Z M 30.5,29.5 C 29.6586,31.3792 29.3253,33.3792 29.5,35.5C 30.8333,35.5 32.1667,35.5 33.5,35.5C 33.6602,33.8008 33.4935,32.1341 33,30.5C 32.3292,29.7476 31.4959,29.4142 30.5,29.5 Z"/></g>
<g><path style="opacity:0.607" fill="#fefffe" d="M 36.5,27.5 C 38.1667,27.5 39.8333,27.5 41.5,27.5C 41.5,30.8333 41.5,34.1667 41.5,37.5C 39.8333,37.5 38.1667,37.5 36.5,37.5C 36.5,34.1667 36.5,30.8333 36.5,27.5 Z"/></g>
<g><path style="opacity:0.276" fill="#fefffe" d="M 9.5,36.5 C 11.337,36.6395 11.6704,37.3061 10.5,38.5C 9.70245,38.0431 9.36912,37.3764 9.5,36.5 Z"/></g>
<g><path style="opacity:0.276" fill="#fefffe" d="M 51.5,36.5 C 53.337,36.6395 53.6704,37.3061 52.5,38.5C 51.7025,38.0431 51.3691,37.3764 51.5,36.5 Z"/></g>
<g><path style="opacity:0.276" fill="#fefffe" d="M 7.5,40.5 C 9.33702,40.6395 9.67036,41.3061 8.5,42.5C 7.70245,42.0431 7.36912,41.3764 7.5,40.5 Z"/></g>
<g><path style="opacity:0.276" fill="#fefffe" d="M 53.5,40.5 C 55.337,40.6395 55.6704,41.3061 54.5,42.5C 53.7025,42.0431 53.3691,41.3764 53.5,40.5 Z"/></g>
<g><path style="opacity:0.416" fill="#fefffe" d="M 16.5,43.5 C 16.506,46.5476 15.506,47.0476 13.5,45C 14.2438,43.9614 15.2438,43.4614 16.5,43.5 Z"/></g>
<g><path style="opacity:0.417" fill="#fefffe" d="M 46.5,43.5 C 49.6741,43.9522 50.0075,44.9522 47.5,46.5C 46.6143,45.675 46.281,44.675 46.5,43.5 Z"/></g>
<g><path style="opacity:0.364" fill="#fefffe" d="M 3.5,47.5 C 3.66721,44.0429 4.66721,43.7096 6.5,46.5C 5.67504,47.3857 4.67504,47.719 3.5,47.5 Z"/></g>
<g><path style="opacity:0.365" fill="#fefffe" d="M 59.5,47.5 C 56.0429,47.3328 55.7096,46.3328 58.5,44.5C 59.3857,45.325 59.719,46.325 59.5,47.5 Z"/></g>
</svg>
